HIERARCHY
ROOT mixamorig:Hips
{
	OFFSET 0.00 0.00 0.00
	CHANNELS 6 Xposition Yposition Zposition Zrotation Yrotation Xrotation
	JOINT mixamorig:Spine
	{
		OFFSET	0.0000	9.9235	-1.2273
		CHANNELS 3 Zrotation Yrotation Xrotation
		JOINT mixamorig:Spine1
		{
			OFFSET	-0.0001	11.6455	-1.4224
			CHANNELS 3 Zrotation Yrotation Xrotation
			JOINT mixamorig:Spine2
			{
				OFFSET	0.0001	13.3602	-1.6265
				CHANNELS 3 Zrotation Yrotation Xrotation
				JOINT mixamorig:Neck
				{
					OFFSET	0.0000	15.0325	0.7929
					CHANNELS 3 Zrotation Yrotation Xrotation
					JOINT mixamorig:Head
					{
						OFFSET	-0.0000	10.3218	3.1424
						CHANNELS 3 Zrotation Yrotation Xrotation
						JOINT mixamorig:HeadTop_End
						{
							OFFSET	0.0002	18.4747	6.6364
							CHANNELS 3 Zrotation Yrotation Xrotation
							End Site
							{
								OFFSET 0.0000 0.0000 0.0000
							}
						}
						JOINT mixamorig:LeftEye
						{
							OFFSET	2.9479	7.6817	9.1207
							CHANNELS 3 Zrotation Yrotation Xrotation
							End Site
							{
								OFFSET 0.0000 0.0000 0.0000
							}
						}
						JOINT mixamorig:RightEye
						{
							OFFSET	-2.9445	7.6817	9.1205
							CHANNELS 3 Zrotation Yrotation Xrotation
							End Site
							{
								OFFSET 0.0000 0.0000 0.0000
							}
						}
					}
				}
				JOINT mixamorig:LeftShoulder
				{
					OFFSET	6.1059	9.1104	0.7056
					CHANNELS 3 Zrotation Yrotation Xrotation
					JOINT mixamorig:LeftArm
					{
						OFFSET	12.6532	-0.3431	-2.6009
						CHANNELS 3 Zrotation Yrotation Xrotation
						JOINT mixamorig:LeftForeArm
						{
							OFFSET	27.3517	-0.9645	-1.4034
							CHANNELS 3 Zrotation Yrotation Xrotation
							JOINT mixamorig:LeftHand
							{
								OFFSET	27.5619	-0.7072	1.5500
								CHANNELS 3 Zrotation Yrotation Xrotation
								JOINT mixamorig:LeftHandMiddle1
								{
									OFFSET	12.6630	-1.3962	0.9548
									CHANNELS 3 Zrotation Yrotation Xrotation
									JOINT mixamorig:LeftHandMiddle2
									{
										OFFSET	3.6093	-0.1669	0.0778
										CHANNELS 3 Zrotation Yrotation Xrotation
										JOINT mixamorig:LeftHandMiddle3
										{
											OFFSET	3.4004	-0.6274	0.1148
											CHANNELS 3 Zrotation Yrotation Xrotation
											End Site
											{
												OFFSET 3.6205 -0.6493 0.1199
											}
										}
									}
								}
								JOINT mixamorig:LeftHandThumb1
								{
									OFFSET	3.3268	-2.0474	3.5790
									CHANNELS 3 Zrotation Yrotation Xrotation
									JOINT mixamorig:LeftHandThumb2
									{
										OFFSET	3.4890	-1.4806	2.8548
										CHANNELS 3 Zrotation Yrotation Xrotation
										JOINT mixamorig:LeftHandThumb3
										{
											OFFSET	3.4086	-1.7658	2.1133
											CHANNELS 3 Zrotation Yrotation Xrotation
											End Site
											{
												OFFSET 2.7231 -1.1597 1.7903
											}
										}
									}
								}
								JOINT mixamorig:LeftHandIndex1
								{
									OFFSET	11.9722	-1.1061	3.7324
									CHANNELS 3 Zrotation Yrotation Xrotation
									JOINT mixamorig:LeftHandIndex2
									{
										OFFSET	3.8387	-0.6406	-0.0310
										CHANNELS 3 Zrotation Yrotation Xrotation
										JOINT mixamorig:LeftHandIndex3
										{
											OFFSET	3.3346	-0.7374	-0.0133
											CHANNELS 3 Zrotation Yrotation Xrotation
											End Site
											{
												OFFSET 2.9714 -0.8030 0.0009
											}
										}
									}
								}
								JOINT mixamorig:LeftHandRing1
								{
									OFFSET	12.1659	-1.6805	-1.2769
									CHANNELS 3 Zrotation Yrotation Xrotation
									JOINT mixamorig:LeftHandRing2
									{
										OFFSET	3.5925	-0.2366	-0.0771
										CHANNELS 3 Zrotation Yrotation Xrotation
										JOINT mixamorig:LeftHandRing3
										{
											OFFSET	3.2906	-0.3266	-0.0615
											CHANNELS 3 Zrotation Yrotation Xrotation
											End Site
											{
												OFFSET 3.5423 -0.9211 -0.0200
											}
										}
									}
								}
								JOINT mixamorig:LeftHandPinky1
								{
									OFFSET	11.0508	-2.1872	-3.8040
									CHANNELS 3 Zrotation Yrotation Xrotation
									JOINT mixamorig:LeftHandPinky2
									{
										OFFSET	4.1236	-0.3047	0.1212
										CHANNELS 3 Zrotation Yrotation Xrotation
										JOINT mixamorig:LeftHandPinky3
										{
											OFFSET	2.5805	-0.2597	0.0823
											CHANNELS 3 Zrotation Yrotation Xrotation
											End Site
											{
												OFFSET 2.9027 -0.3379 0.0963
											}
										}
									}
								}
							}
						}
					}
				}
				JOINT mixamorig:RightShoulder
				{
					OFFSET	-6.1057	9.1105	0.7056
					CHANNELS 3 Zrotation Yrotation Xrotation
					JOINT mixamorig:RightArm
					{
						OFFSET	-12.6532	-0.3429	-2.6009
						CHANNELS 3 Zrotation Yrotation Xrotation
						JOINT mixamorig:RightForeArm
						{
							OFFSET	-27.3518	-0.9642	-1.4034
							CHANNELS 3 Zrotation Yrotation Xrotation
							JOINT mixamorig:RightHand
							{
								OFFSET	-27.5619	-0.7068	1.5501
								CHANNELS 3 Zrotation Yrotation Xrotation
								JOINT mixamorig:RightHandMiddle1
								{
									OFFSET	-12.6630	-1.3960	0.9549
									CHANNELS 3 Zrotation Yrotation Xrotation
									JOINT mixamorig:RightHandMiddle2
									{
										OFFSET	-3.6093	-0.1669	0.0778
										CHANNELS 3 Zrotation Yrotation Xrotation
										JOINT mixamorig:RightHandMiddle3
										{
											OFFSET	-3.4004	-0.6273	0.1148
											CHANNELS 3 Zrotation Yrotation Xrotation
											End Site
											{
												OFFSET -3.6205 -0.6492 0.1199
											}
										}
									}
								}
								JOINT mixamorig:RightHandThumb1
								{
									OFFSET	-3.3269	-2.0474	3.5790
									CHANNELS 3 Zrotation Yrotation Xrotation
									JOINT mixamorig:RightHandThumb2
									{
										OFFSET	-3.4890	-1.4805	2.8548
										CHANNELS 3 Zrotation Yrotation Xrotation
										JOINT mixamorig:RightHandThumb3
										{
											OFFSET	-3.4086	-1.7658	2.1133
											CHANNELS 3 Zrotation Yrotation Xrotation
											End Site
											{
												OFFSET -2.7231 -1.1596 1.7903
											}
										}
									}
								}
								JOINT mixamorig:RightHandIndex1
								{
									OFFSET	-11.9722	-1.1059	3.7324
									CHANNELS 3 Zrotation Yrotation Xrotation
									JOINT mixamorig:RightHandIndex2
									{
										OFFSET	-3.8387	-0.6406	-0.0310
										CHANNELS 3 Zrotation Yrotation Xrotation
										JOINT mixamorig:RightHandIndex3
										{
											OFFSET	-3.3346	-0.7373	-0.0133
											CHANNELS 3 Zrotation Yrotation Xrotation
											End Site
											{
												OFFSET -2.9715 -0.8029 0.0009
											}
										}
									}
								}
								JOINT mixamorig:RightHandRing1
								{
									OFFSET	-12.1659	-1.6803	-1.2769
									CHANNELS 3 Zrotation Yrotation Xrotation
									JOINT mixamorig:RightHandRing2
									{
										OFFSET	-3.5925	-0.2366	-0.0771
										CHANNELS 3 Zrotation Yrotation Xrotation
										JOINT mixamorig:RightHandRing3
										{
											OFFSET	-3.2906	-0.3265	-0.0615
											CHANNELS 3 Zrotation Yrotation Xrotation
											End Site
											{
												OFFSET -3.5423 -0.9210 -0.0200
											}
										}
									}
								}
								JOINT mixamorig:RightHandPinky1
								{
									OFFSET	-11.0508	-2.1870	-3.8040
									CHANNELS 3 Zrotation Yrotation Xrotation
									JOINT mixamorig:RightHandPinky2
									{
										OFFSET	-4.1236	-0.3046	0.1212
										CHANNELS 3 Zrotation Yrotation Xrotation
										JOINT mixamorig:RightHandPinky3
										{
											OFFSET	-2.5805	-0.2597	0.0823
											CHANNELS 3 Zrotation Yrotation Xrotation
											End Site
											{
												OFFSET -2.9027 -0.3379 0.0963
											}
										}
									}
								}
							}
						}
					}
				}
			}
		}
	}
	JOINT mixamorig:RightUpLeg
	{
		OFFSET	-9.1245	-6.6564	-0.0554
		CHANNELS 3 Zrotation Yrotation Xrotation
		JOINT mixamorig:RightLeg
		{
			OFFSET	0.0000	-40.5610	-1.7662
			CHANNELS 3 Zrotation Yrotation Xrotation
			JOINT mixamorig:RightFoot
			{
				OFFSET	0.4978	-41.9625	-3.3512
				CHANNELS 3 Zrotation Yrotation Xrotation
				JOINT mixamorig:RightToeBase
				{
					OFFSET	-0.3734	-10.4922	12.6406
					CHANNELS 3 Zrotation Yrotation Xrotation
					End Site
					{
						OFFSET 0.0000 0.0000 9.9925
					}
				}
			}
		}
	}
	JOINT mixamorig:LeftUpLeg
	{
		OFFSET	9.1245	-6.6564	-0.0554
		CHANNELS 3 Zrotation Yrotation Xrotation
		JOINT mixamorig:LeftLeg
		{
			OFFSET	-0.0000	-40.5610	-1.7662
			CHANNELS 3 Zrotation Yrotation Xrotation
			JOINT mixamorig:LeftFoot
			{
				OFFSET	-0.4978	-41.9625	-3.3512
				CHANNELS 3 Zrotation Yrotation Xrotation
				JOINT mixamorig:LeftToeBase
				{
					OFFSET	0.3734	-10.4922	12.6406
					CHANNELS 3 Zrotation Yrotation Xrotation
					End Site
					{
						OFFSET -0.0000 0.0000 9.9925
					}
				}
			}
		}
	}
}
MOTION
Frames: 4
Frame Time: 0.0333333
-1.5811 95.8921 3.3534 8.7619 -31.6530 -21.5512 2.5985 0.6535 4.2114 3.6932 0.3136 9.8099 3.6746 0.2105 9.7441 -7.3189 6.5277 -6.4888 11.4864 -5.5099 -4.7034 0.0000 -0.0000 0.0000 0.0000 -0.0000 0.0000 0.0000 -0.0000 0.0000 0.4548 3.1806 -37.3631 -37.5802 -33.3496 3.7588 1.2828 -63.4247 -2.9486 -10.4909 9.8267 -70.9777 -10.5787 -4.6739 0.2814 -62.7862 -2.1987 2.8204 -24.6611 -1.3225 0.8518 -3.9110 0.9439 6.7636 10.1445 -9.1883 13.1719 0.6108 -7.6517 -2.0410 -1.5512 -8.4309 -1.2917 -57.1232 -2.8247 0.5545 -26.6770 -1.3218 -0.0583 -30.8604 -4.2533 1.1492 -50.6092 -2.8946 0.0403 -32.5894 -1.6771 -0.2088 -33.8163 1.6200 1.7827 -52.5233 -2.0655 2.4640 -35.8006 -1.6793 1.5108 12.6832 -15.2652 -38.1493 100.1454 37.0633 69.6663 -4.8893 77.6304 -6.7421 -16.3158 1.6884 -42.5626 52.8826 2.8627 3.1097 101.4309 3.1992 6.4887 18.2496 1.3952 0.5689 17.1035 -5.0785 13.6798 -22.9786 -7.6877 20.8609 -34.9274 -48.0767 34.8914 -3.5567 8.7760 -1.5654 13.4052 0.9746 -0.1524 6.4442 0.4285 -0.0917 54.8537 12.1800 2.5798 96.3424 5.9621 3.3021 45.9478 3.5220 0.2505 71.5660 10.5560 4.0445 77.8936 3.3831 4.9239 67.4316 3.3789 4.0762 -12.0987 2.8312 11.3263 2.0001 4.5014 29.0875 14.0946 -22.0905 -26.0562 0.0000 -0.0000 -2.8934 15.2823 41.4774 6.1261 -1.1728 3.3496 18.0431 -2.9994 -2.5740 3.7980 -0.0000 -0.0000 -0.0576 
-1.8409 95.8305 3.1092 8.5807 -30.0218 -22.0616 2.6220 0.9068 4.0391 3.6404 0.7985 9.5502 3.6027 0.6703 9.4697 -7.1104 6.3731 -5.7549 12.6854 -7.0706 -3.9409 0.0000 -0.0000 0.0000 0.0000 -0.0000 0.0000 0.0000 -0.0000 0.0000 2.7948 4.0991 -37.3710 -38.4486 -35.5130 8.7808 1.2973 -63.5490 -2.9647 -4.0005 15.6045 -59.5945 -9.0429 -1.0111 0.3966 -42.3790 -1.7742 1.6370 -14.9129 -0.8523 0.4472 -3.9110 0.9439 6.7636 10.1445 -9.1883 13.1719 0.6108 -7.6517 -2.0410 7.5633 -5.8029 -1.1535 -40.9337 -2.0816 0.1070 -23.3699 -1.1462 -0.0842 -25.0906 -4.0152 0.8552 -47.4172 -2.7198 -0.0391 -16.2150 -0.6997 -0.2197 -29.8213 2.8495 1.6473 -45.8578 -1.9352 2.0582 -27.7670 -1.3864 1.0843 12.6926 -15.2943 -38.1513 97.8275 36.9665 67.7436 -4.6878 77.2545 -6.5356 -15.9970 -0.5628 -41.1080 52.4035 1.9477 3.1145 102.1823 3.1739 6.5447 17.7543 1.3603 0.5477 17.1035 -5.0786 13.6798 -22.9786 -7.6877 20.8609 -34.9274 -48.0767 34.8914 -2.9675 9.0452 -1.5921 13.4837 0.9805 -0.1526 6.6414 0.4430 -0.0940 55.6758 12.2950 2.6391 96.5943 5.9665 3.3218 45.6484 3.5006 0.2398 71.5578 10.5582 4.0436 77.7365 3.3840 4.9109 66.9848 3.3749 4.0392 -11.5957 2.6968 12.4899 1.8668 4.0859 29.0424 14.3215 -23.1572 -26.5389 0.0000 0.0000 -2.6632 15.4690 41.0838 6.5284 -1.0132 3.3404 17.8514 -2.9884 -3.9107 4.2577 -0.0000 0.0000 -0.1034 
-2.1049 95.7568 2.8278 8.2257 -27.8265 -22.4792 2.6585 1.1283 3.9036 3.6019 1.2489 9.3651 3.5434 1.1672 9.2633 -7.0280 6.2292 -4.9961 13.8793 -8.6204 -3.8318 0.0000 -0.0000 0.0000 0.0000 -0.0000 0.0000 0.0000 -0.0000 0.0000 3.1979 5.3924 -37.6018 -41.3630 -37.4485 12.4127 1.6330 -66.1363 -3.3353 2.0244 18.5073 -46.1169 -9.2878 1.4297 0.5169 -28.6180 -1.2644 0.9560 -9.3795 -0.5568 0.2549 -3.9110 0.9439 6.7636 10.1445 -9.1883 13.1719 0.6108 -7.6517 -2.0410 12.6419 -3.7748 -0.9478 -29.7364 -1.5076 -0.0723 -21.4776 -1.0452 -0.0945 -20.1983 -3.5875 0.6372 -45.5682 -2.6166 -0.0806 -31.8303 -1.6321 -0.2155 -26.9596 3.5991 1.5455 -38.2339 -1.7295 1.6162 -22.8487 -1.1786 0.8449 12.7006 -15.3207 -38.1533 94.8730 36.7809 65.2719 -4.8081 77.4817 -6.6589 -14.6018 -4.3980 -39.3112 52.1714 1.2080 3.1305 102.6588 3.1574 6.5800 17.4171 1.3365 0.5335 17.1035 -5.0785 13.6798 -22.9786 -7.6877 20.8609 -34.9274 -48.0767 34.8914 -3.1683 9.0518 -1.6006 13.5615 0.9863 -0.1528 6.8175 0.4560 -0.0960 56.6386 12.3747 2.7125 96.7404 5.9691 3.3331 45.4762 3.4883 0.2336 71.3663 10.5606 4.0276 77.5461 3.3852 4.8952 66.6516 3.3718 4.0117 -10.9664 2.4083 13.8383 1.7338 3.3866 28.8632 14.5894 -24.4254 -27.0555 0.0000 0.0000 -2.4093 15.5030 40.5760 6.6233 -0.7968 3.2949 17.7817 -2.9248 -5.6499 4.7519 0.0000 -0.0000 -0.1269 
-2.3592 95.6675 2.4935 7.7979 -25.1631 -22.8330 2.7017 1.3423 3.7539 3.5751 1.7239 9.1844 3.5074 1.6088 9.1515 -7.1195 6.1071 -4.1032 14.7116 -10.3286 -3.8934 0.0000 -0.0000 0.0000 0.0000 -0.0000 0.0000 0.0000 -0.0000 0.0000 4.3509 6.5338 -37.6920 -44.8580 -37.7085 15.4219 2.3356 -70.1579 -4.0913 8.0301 18.0280 -35.0443 -9.2974 1.8169 0.5343 -26.4398 -1.1693 0.8602 -8.4800 -0.5071 0.2263 -3.9110 0.9439 6.7636 10.1445 -9.1883 13.1719 0.6108 -7.6517 -2.0410 13.4702 -3.4582 -0.9145 -27.9700 -1.4143 -0.0902 -21.1703 -1.0288 -0.0958 -15.9137 -3.0622 0.4702 -44.5167 -2.5574 -0.1027 -33.7066 -1.7431 -0.1979 -26.5169 3.7196 1.5305 -30.2479 -1.4532 1.1867 -22.0588 -1.1433 0.8082 12.5542 -15.1376 -38.2114 91.6242 35.9160 61.7209 -5.1759 78.1279 -7.0351 -13.4581 -7.8894 -36.9052 52.2763 0.6947 3.1626 102.8499 3.1507 6.5941 17.2386 1.3239 0.5260 17.1035 -5.0785 13.6798 -22.9786 -7.6877 20.8609 -34.9274 -48.0767 34.8914 -4.3512 8.7339 -1.5861 13.6384 0.9920 -0.1530 6.9272 0.4641 -0.0972 57.7929 12.4057 2.8053 96.7750 5.9697 3.3358 45.4483 3.4863 0.2326 70.9281 10.5628 3.9910 77.2803 3.3866 4.8731 66.4835 3.3701 3.9979 -10.2361 2.0196 15.2090 1.6862 2.6649 28.6704 14.9707 -26.1177 -27.7086 0.0000 -0.0000 -2.3191 15.3137 39.9843 6.4341 -0.5807 3.1985 17.7560 -2.7885 -7.6656 5.3070 -0.0000 0.0000 -0.1242 
